<mxfile host="app.diagrams.net" modified="2021-12-15T12:55:56.616Z" agent="5.0 (Windows NT 10.0; Win64; x64) AppleWebKit/537.36 (KHTML, like Gecko) Chrome/96.0.4664.93 Safari/537.36" etag="NFL-VkP6P7Z7tFSBX_6V" version="15.9.6" type="github">
  <diagram id="bgCsupE-RrFJObJ2OHrQ" name="Page-1">
    <mxGraphModel dx="1632" dy="1607" grid="1" gridSize="10" guides="1" tooltips="1" connect="1" arrows="1" fold="1" page="1" pageScale="1" pageWidth="850" pageHeight="1100" math="0" shadow="0">
      <root>
        <mxCell id="0" />
        <mxCell id="1" parent="0" />
        <mxCell id="HbWxku8zXNTNoIqn5ugo-1" value="Mejeri" style="whiteSpace=wrap;html=1;align=center;" parent="1" vertex="1">
          <mxGeometry x="160" y="330" width="100" height="40" as="geometry" />
        </mxCell>
        <mxCell id="HbWxku8zXNTNoIqn5ugo-2" value="Frukt" style="whiteSpace=wrap;html=1;align=center;" parent="1" vertex="1">
          <mxGeometry x="310" y="330" width="100" height="40" as="geometry" />
        </mxCell>
        <mxCell id="HbWxku8zXNTNoIqn5ugo-3" value="Skafferi" style="whiteSpace=wrap;html=1;align=center;" parent="1" vertex="1">
          <mxGeometry y="330" width="100" height="40" as="geometry" />
        </mxCell>
        <mxCell id="HbWxku8zXNTNoIqn5ugo-4" value="Dryck" style="whiteSpace=wrap;html=1;align=center;" parent="1" vertex="1">
          <mxGeometry x="630" y="340" width="100" height="40" as="geometry" />
        </mxCell>
        <mxCell id="HbWxku8zXNTNoIqn5ugo-5" value="Köttdisk" style="whiteSpace=wrap;html=1;align=center;" parent="1" vertex="1">
          <mxGeometry x="220" y="410" width="100" height="40" as="geometry" />
        </mxCell>
        <mxCell id="HbWxku8zXNTNoIqn5ugo-7" value="Bröd" style="whiteSpace=wrap;html=1;align=center;" parent="1" vertex="1">
          <mxGeometry y="440" width="100" height="40" as="geometry" />
        </mxCell>
        <mxCell id="HbWxku8zXNTNoIqn5ugo-10" value="StaffID" style="ellipse;whiteSpace=wrap;html=1;align=center;fontStyle=4;" parent="1" vertex="1">
          <mxGeometry x="450" y="380" width="110" height="40" as="geometry" />
        </mxCell>
        <mxCell id="HbWxku8zXNTNoIqn5ugo-46" style="edgeStyle=orthogonalEdgeStyle;rounded=0;orthogonalLoop=1;jettySize=auto;html=1;exitX=0.5;exitY=0;exitDx=0;exitDy=0;entryX=0.5;entryY=1;entryDx=0;entryDy=0;endArrow=none;endFill=0;" parent="1" source="HbWxku8zXNTNoIqn5ugo-11" target="HbWxku8zXNTNoIqn5ugo-44" edge="1">
          <mxGeometry relative="1" as="geometry" />
        </mxCell>
        <mxCell id="HbWxku8zXNTNoIqn5ugo-11" value="PhoneNumber" style="ellipse;whiteSpace=wrap;html=1;align=center;" parent="1" vertex="1">
          <mxGeometry x="-400" y="420" width="100" height="40" as="geometry" />
        </mxCell>
        <mxCell id="YOZ8upLMMK2aXxQrohTa-20" style="edgeStyle=orthogonalEdgeStyle;rounded=0;orthogonalLoop=1;jettySize=auto;html=1;exitX=0.5;exitY=0;exitDx=0;exitDy=0;entryX=0.75;entryY=1;entryDx=0;entryDy=0;endArrow=none;endFill=0;" parent="1" source="HbWxku8zXNTNoIqn5ugo-13" target="HbWxku8zXNTNoIqn5ugo-33" edge="1">
          <mxGeometry relative="1" as="geometry" />
        </mxCell>
        <mxCell id="HbWxku8zXNTNoIqn5ugo-13" value="Name" style="ellipse;whiteSpace=wrap;html=1;align=center;" parent="1" vertex="1">
          <mxGeometry x="180" y="240" width="100" height="40" as="geometry" />
        </mxCell>
        <mxCell id="YOZ8upLMMK2aXxQrohTa-6" style="edgeStyle=orthogonalEdgeStyle;rounded=0;orthogonalLoop=1;jettySize=auto;html=1;exitX=1;exitY=0.5;exitDx=0;exitDy=0;entryX=1;entryY=0;entryDx=0;entryDy=0;endArrow=none;endFill=0;" parent="1" source="HbWxku8zXNTNoIqn5ugo-17" target="HbWxku8zXNTNoIqn5ugo-44" edge="1">
          <mxGeometry relative="1" as="geometry">
            <Array as="points">
              <mxPoint x="-280" y="90" />
              <mxPoint x="-280" y="165" />
              <mxPoint x="-315" y="165" />
            </Array>
          </mxGeometry>
        </mxCell>
        <mxCell id="YOZ8upLMMK2aXxQrohTa-7" style="edgeStyle=orthogonalEdgeStyle;rounded=0;orthogonalLoop=1;jettySize=auto;html=1;exitX=0;exitY=0.5;exitDx=0;exitDy=0;entryX=0;entryY=0.25;entryDx=0;entryDy=0;endArrow=none;endFill=0;" parent="1" source="HbWxku8zXNTNoIqn5ugo-17" target="HbWxku8zXNTNoIqn5ugo-44" edge="1">
          <mxGeometry relative="1" as="geometry" />
        </mxCell>
        <mxCell id="HbWxku8zXNTNoIqn5ugo-17" value="Mentor" style="shape=rhombus;perimeter=rhombusPerimeter;whiteSpace=wrap;html=1;align=center;" parent="1" vertex="1">
          <mxGeometry x="-420.03" y="60" width="120" height="60" as="geometry" />
        </mxCell>
        <mxCell id="HbWxku8zXNTNoIqn5ugo-21" style="edgeStyle=orthogonalEdgeStyle;rounded=0;orthogonalLoop=1;jettySize=auto;html=1;exitX=0.5;exitY=1;exitDx=0;exitDy=0;entryX=0.5;entryY=0;entryDx=0;entryDy=0;endArrow=none;endFill=0;" parent="1" source="HbWxku8zXNTNoIqn5ugo-20" target="HbWxku8zXNTNoIqn5ugo-17" edge="1">
          <mxGeometry relative="1" as="geometry" />
        </mxCell>
        <mxCell id="HbWxku8zXNTNoIqn5ugo-20" value="EndDate" style="ellipse;whiteSpace=wrap;html=1;align=center;" parent="1" vertex="1">
          <mxGeometry x="-450" y="-40" width="100" height="40" as="geometry" />
        </mxCell>
        <mxCell id="HbWxku8zXNTNoIqn5ugo-27" style="edgeStyle=orthogonalEdgeStyle;rounded=0;orthogonalLoop=1;jettySize=auto;html=1;exitX=0.5;exitY=1;exitDx=0;exitDy=0;entryX=1;entryY=0;entryDx=0;entryDy=0;endArrow=none;endFill=0;" parent="1" source="HbWxku8zXNTNoIqn5ugo-26" target="HbWxku8zXNTNoIqn5ugo-17" edge="1">
          <mxGeometry relative="1" as="geometry" />
        </mxCell>
        <mxCell id="HbWxku8zXNTNoIqn5ugo-26" value="MentorID" style="ellipse;whiteSpace=wrap;html=1;align=center;fontStyle=4;" parent="1" vertex="1">
          <mxGeometry x="-330" y="-40" width="100" height="40" as="geometry" />
        </mxCell>
        <mxCell id="HbWxku8zXNTNoIqn5ugo-47" style="edgeStyle=orthogonalEdgeStyle;rounded=0;orthogonalLoop=1;jettySize=auto;html=1;exitX=0.5;exitY=0;exitDx=0;exitDy=0;entryX=0.75;entryY=1;entryDx=0;entryDy=0;endArrow=none;endFill=0;" parent="1" source="HbWxku8zXNTNoIqn5ugo-28" target="HbWxku8zXNTNoIqn5ugo-44" edge="1">
          <mxGeometry relative="1" as="geometry" />
        </mxCell>
        <mxCell id="HbWxku8zXNTNoIqn5ugo-28" value="Email" style="ellipse;shape=doubleEllipse;margin=3;whiteSpace=wrap;html=1;align=center;" parent="1" vertex="1">
          <mxGeometry x="-320" y="370" width="100" height="40" as="geometry" />
        </mxCell>
        <mxCell id="HbWxku8zXNTNoIqn5ugo-33" value="Departments" style="whiteSpace=wrap;html=1;align=center;" parent="1" vertex="1">
          <mxGeometry x="90" y="120" width="100" height="40" as="geometry" />
        </mxCell>
        <mxCell id="HbWxku8zXNTNoIqn5ugo-45" style="edgeStyle=orthogonalEdgeStyle;rounded=0;orthogonalLoop=1;jettySize=auto;html=1;exitX=0.5;exitY=0;exitDx=0;exitDy=0;entryX=0.25;entryY=1;entryDx=0;entryDy=0;endArrow=none;endFill=0;" parent="1" source="HbWxku8zXNTNoIqn5ugo-35" target="HbWxku8zXNTNoIqn5ugo-44" edge="1">
          <mxGeometry relative="1" as="geometry" />
        </mxCell>
        <mxCell id="HbWxku8zXNTNoIqn5ugo-35" value="SocialSeqNumber" style="ellipse;whiteSpace=wrap;html=1;align=center;fontStyle=4;" parent="1" vertex="1">
          <mxGeometry x="-470" y="360" width="100" height="40" as="geometry" />
        </mxCell>
        <mxCell id="HbWxku8zXNTNoIqn5ugo-43" value="StaffID" style="ellipse;whiteSpace=wrap;html=1;align=center;fontStyle=4;" parent="1" vertex="1">
          <mxGeometry x="-149.99999999999997" y="320" width="100" height="40" as="geometry" />
        </mxCell>
        <mxCell id="HbWxku8zXNTNoIqn5ugo-44" value="Personal Information" style="whiteSpace=wrap;html=1;align=center;" parent="1" vertex="1">
          <mxGeometry x="-415" y="210" width="100" height="40" as="geometry" />
        </mxCell>
        <mxCell id="YOZ8upLMMK2aXxQrohTa-1" style="edgeStyle=orthogonalEdgeStyle;rounded=0;orthogonalLoop=1;jettySize=auto;html=1;exitX=0;exitY=0.5;exitDx=0;exitDy=0;entryX=1;entryY=0.5;entryDx=0;entryDy=0;endArrow=none;endFill=0;" parent="1" source="HbWxku8zXNTNoIqn5ugo-56" target="HbWxku8zXNTNoIqn5ugo-60" edge="1">
          <mxGeometry relative="1" as="geometry" />
        </mxCell>
        <mxCell id="YOZ8upLMMK2aXxQrohTa-27" style="edgeStyle=orthogonalEdgeStyle;rounded=0;orthogonalLoop=1;jettySize=auto;html=1;exitX=0.5;exitY=1;exitDx=0;exitDy=0;entryX=0.5;entryY=0;entryDx=0;entryDy=0;endArrow=none;endFill=0;" parent="1" source="HbWxku8zXNTNoIqn5ugo-56" target="YOZ8upLMMK2aXxQrohTa-26" edge="1">
          <mxGeometry relative="1" as="geometry" />
        </mxCell>
        <mxCell id="HbWxku8zXNTNoIqn5ugo-56" value="Products" style="whiteSpace=wrap;html=1;align=center;" parent="1" vertex="1">
          <mxGeometry x="400" y="120" width="100" height="40" as="geometry" />
        </mxCell>
        <mxCell id="YOZ8upLMMK2aXxQrohTa-2" style="edgeStyle=orthogonalEdgeStyle;rounded=0;orthogonalLoop=1;jettySize=auto;html=1;exitX=0;exitY=0.5;exitDx=0;exitDy=0;entryX=1;entryY=0.5;entryDx=0;entryDy=0;endArrow=none;endFill=0;" parent="1" source="HbWxku8zXNTNoIqn5ugo-60" target="HbWxku8zXNTNoIqn5ugo-33" edge="1">
          <mxGeometry relative="1" as="geometry" />
        </mxCell>
        <mxCell id="HbWxku8zXNTNoIqn5ugo-60" value="Contains" style="shape=rhombus;double=1;perimeter=rhombusPerimeter;whiteSpace=wrap;html=1;align=center;" parent="1" vertex="1">
          <mxGeometry x="230" y="110" width="120" height="60" as="geometry" />
        </mxCell>
        <mxCell id="YOZ8upLMMK2aXxQrohTa-3" style="edgeStyle=orthogonalEdgeStyle;rounded=0;orthogonalLoop=1;jettySize=auto;html=1;exitX=0.5;exitY=1;exitDx=0;exitDy=0;" parent="1" source="HbWxku8zXNTNoIqn5ugo-43" target="HbWxku8zXNTNoIqn5ugo-43" edge="1">
          <mxGeometry relative="1" as="geometry" />
        </mxCell>
        <mxCell id="YOZ8upLMMK2aXxQrohTa-8" value="1" style="text;html=1;align=center;verticalAlign=middle;resizable=0;points=[];autosize=1;strokeColor=none;fillColor=none;" parent="1" vertex="1">
          <mxGeometry x="-350" y="190" width="20" height="20" as="geometry" />
        </mxCell>
        <mxCell id="YOZ8upLMMK2aXxQrohTa-9" value="N" style="text;html=1;align=center;verticalAlign=middle;resizable=0;points=[];autosize=1;strokeColor=none;fillColor=none;" parent="1" vertex="1">
          <mxGeometry x="-440" y="230" width="20" height="20" as="geometry" />
        </mxCell>
        <mxCell id="YOZ8upLMMK2aXxQrohTa-14" style="edgeStyle=orthogonalEdgeStyle;rounded=0;orthogonalLoop=1;jettySize=auto;html=1;exitX=1;exitY=0.5;exitDx=0;exitDy=0;entryX=0;entryY=0.5;entryDx=0;entryDy=0;endArrow=none;endFill=0;" parent="1" source="YOZ8upLMMK2aXxQrohTa-12" target="HbWxku8zXNTNoIqn5ugo-33" edge="1">
          <mxGeometry relative="1" as="geometry">
            <mxPoint x="-130" y="80" as="targetPoint" />
          </mxGeometry>
        </mxCell>
        <mxCell id="YOZ8upLMMK2aXxQrohTa-15" style="edgeStyle=orthogonalEdgeStyle;rounded=0;orthogonalLoop=1;jettySize=auto;html=1;exitX=0;exitY=0.5;exitDx=0;exitDy=0;entryX=1;entryY=0.5;entryDx=0;entryDy=0;endArrow=none;endFill=0;" parent="1" source="YOZ8upLMMK2aXxQrohTa-12" target="HbWxku8zXNTNoIqn5ugo-44" edge="1">
          <mxGeometry relative="1" as="geometry" />
        </mxCell>
        <mxCell id="vDdx3OhDrT1uDp-DQFyT-1" style="edgeStyle=orthogonalEdgeStyle;rounded=0;orthogonalLoop=1;jettySize=auto;html=1;exitX=0.5;exitY=1;exitDx=0;exitDy=0;entryX=0.5;entryY=0;entryDx=0;entryDy=0;endArrow=none;endFill=0;" parent="1" source="YOZ8upLMMK2aXxQrohTa-12" target="HbWxku8zXNTNoIqn5ugo-43" edge="1">
          <mxGeometry relative="1" as="geometry" />
        </mxCell>
        <mxCell id="YOZ8upLMMK2aXxQrohTa-12" value="Works" style="shape=rhombus;perimeter=rhombusPerimeter;whiteSpace=wrap;html=1;align=center;" parent="1" vertex="1">
          <mxGeometry x="-290" y="220" width="120" height="60" as="geometry" />
        </mxCell>
        <mxCell id="YOZ8upLMMK2aXxQrohTa-24" style="edgeStyle=orthogonalEdgeStyle;rounded=0;orthogonalLoop=1;jettySize=auto;html=1;exitX=0.5;exitY=0;exitDx=0;exitDy=0;entryX=0.25;entryY=1;entryDx=0;entryDy=0;endArrow=none;endFill=0;" parent="1" source="YOZ8upLMMK2aXxQrohTa-19" target="HbWxku8zXNTNoIqn5ugo-33" edge="1">
          <mxGeometry relative="1" as="geometry" />
        </mxCell>
        <mxCell id="YOZ8upLMMK2aXxQrohTa-19" value="DepartmentId" style="ellipse;whiteSpace=wrap;html=1;align=center;fontStyle=4;" parent="1" vertex="1">
          <mxGeometry x="50" y="240" width="100" height="40" as="geometry" />
        </mxCell>
        <mxCell id="YOZ8upLMMK2aXxQrohTa-26" value="DepartmentId" style="ellipse;whiteSpace=wrap;html=1;align=center;fontStyle=4;" parent="1" vertex="1">
          <mxGeometry x="400" y="230" width="100" height="40" as="geometry" />
        </mxCell>
        <mxCell id="YOZ8upLMMK2aXxQrohTa-29" style="edgeStyle=orthogonalEdgeStyle;rounded=0;orthogonalLoop=1;jettySize=auto;html=1;exitX=0.5;exitY=0;exitDx=0;exitDy=0;entryX=0.75;entryY=1;entryDx=0;entryDy=0;endArrow=none;endFill=0;" parent="1" source="YOZ8upLMMK2aXxQrohTa-28" target="HbWxku8zXNTNoIqn5ugo-56" edge="1">
          <mxGeometry relative="1" as="geometry" />
        </mxCell>
        <mxCell id="YOZ8upLMMK2aXxQrohTa-28" value="Price" style="ellipse;whiteSpace=wrap;html=1;align=center;" parent="1" vertex="1">
          <mxGeometry x="530" y="230" width="100" height="40" as="geometry" />
        </mxCell>
        <mxCell id="vDdx3OhDrT1uDp-DQFyT-2" value="1" style="text;html=1;align=center;verticalAlign=middle;resizable=0;points=[];autosize=1;strokeColor=none;fillColor=none;" parent="1" vertex="1">
          <mxGeometry x="-310" y="220" width="20" height="20" as="geometry" />
        </mxCell>
        <mxCell id="vDdx3OhDrT1uDp-DQFyT-3" value="N" style="text;html=1;align=center;verticalAlign=middle;resizable=0;points=[];autosize=1;strokeColor=none;fillColor=none;" parent="1" vertex="1">
          <mxGeometry x="70" y="110" width="20" height="20" as="geometry" />
        </mxCell>
        <mxCell id="ekuMtjMr5jPnJNl6alYP-1" value="Test" style="rhombus;whiteSpace=wrap;html=1;" parent="1" vertex="1">
          <mxGeometry x="-180" y="80" width="80" height="80" as="geometry" />
        </mxCell>
        <mxCell id="_oEQiWgGqk_jcxd5cbi1-2" value="Name" style="ellipse;whiteSpace=wrap;html=1;align=center;" vertex="1" parent="1">
          <mxGeometry x="-540" y="-400" width="100" height="40" as="geometry" />
        </mxCell>
        <mxCell id="_oEQiWgGqk_jcxd5cbi1-15" style="edgeStyle=orthogonalEdgeStyle;rounded=0;orthogonalLoop=1;jettySize=auto;html=1;exitX=1;exitY=0.5;exitDx=0;exitDy=0;entryX=0;entryY=0.5;entryDx=0;entryDy=0;endArrow=none;endFill=0;" edge="1" parent="1" source="_oEQiWgGqk_jcxd5cbi1-3" target="_oEQiWgGqk_jcxd5cbi1-9">
          <mxGeometry relative="1" as="geometry" />
        </mxCell>
        <mxCell id="_oEQiWgGqk_jcxd5cbi1-17" style="edgeStyle=orthogonalEdgeStyle;rounded=0;orthogonalLoop=1;jettySize=auto;html=1;exitX=0;exitY=0.5;exitDx=0;exitDy=0;entryX=1;entryY=0.5;entryDx=0;entryDy=0;endArrow=none;endFill=0;" edge="1" parent="1" source="_oEQiWgGqk_jcxd5cbi1-3" target="_oEQiWgGqk_jcxd5cbi1-2">
          <mxGeometry relative="1" as="geometry" />
        </mxCell>
        <mxCell id="_oEQiWgGqk_jcxd5cbi1-3" value="Staff" style="whiteSpace=wrap;html=1;align=center;" vertex="1" parent="1">
          <mxGeometry x="-370" y="-400" width="100" height="40" as="geometry" />
        </mxCell>
        <mxCell id="_oEQiWgGqk_jcxd5cbi1-13" style="edgeStyle=orthogonalEdgeStyle;rounded=0;orthogonalLoop=1;jettySize=auto;html=1;exitX=0.5;exitY=1;exitDx=0;exitDy=0;endArrow=none;endFill=0;" edge="1" parent="1" source="_oEQiWgGqk_jcxd5cbi1-5" target="_oEQiWgGqk_jcxd5cbi1-2">
          <mxGeometry relative="1" as="geometry" />
        </mxCell>
        <mxCell id="_oEQiWgGqk_jcxd5cbi1-5" value="SocialSeqNum" style="ellipse;whiteSpace=wrap;html=1;align=center;fontStyle=4;" vertex="1" parent="1">
          <mxGeometry x="-540" y="-460" width="100" height="40" as="geometry" />
        </mxCell>
        <mxCell id="_oEQiWgGqk_jcxd5cbi1-14" style="edgeStyle=orthogonalEdgeStyle;rounded=0;orthogonalLoop=1;jettySize=auto;html=1;exitX=0.5;exitY=0;exitDx=0;exitDy=0;endArrow=none;endFill=0;" edge="1" parent="1" source="_oEQiWgGqk_jcxd5cbi1-8" target="_oEQiWgGqk_jcxd5cbi1-2">
          <mxGeometry relative="1" as="geometry" />
        </mxCell>
        <mxCell id="_oEQiWgGqk_jcxd5cbi1-8" value="E-mail" style="ellipse;shape=doubleEllipse;margin=3;whiteSpace=wrap;html=1;align=center;" vertex="1" parent="1">
          <mxGeometry x="-540" y="-330" width="100" height="40" as="geometry" />
        </mxCell>
        <mxCell id="_oEQiWgGqk_jcxd5cbi1-16" style="edgeStyle=orthogonalEdgeStyle;rounded=0;orthogonalLoop=1;jettySize=auto;html=1;exitX=0.5;exitY=0;exitDx=0;exitDy=0;entryX=0.5;entryY=0;entryDx=0;entryDy=0;endArrow=none;endFill=0;" edge="1" parent="1" source="_oEQiWgGqk_jcxd5cbi1-9" target="_oEQiWgGqk_jcxd5cbi1-3">
          <mxGeometry relative="1" as="geometry" />
        </mxCell>
        <mxCell id="_oEQiWgGqk_jcxd5cbi1-9" value="Mentor" style="shape=rhombus;perimeter=rhombusPerimeter;whiteSpace=wrap;html=1;align=center;" vertex="1" parent="1">
          <mxGeometry x="-200" y="-410" width="120" height="60" as="geometry" />
        </mxCell>
      </root>
    </mxGraphModel>
  </diagram>
</mxfile>
